<?xml version="1.0" encoding="UTF-8" standalone="no"?>
<svg
   width="594"
   height="980"
   viewBox="0 0 594 980"
   fill="none"
   version="1.1"
   id="svg14"
   sodipodi:docname="Group 40(2).svg"
   inkscape:version="1.4 (e7c3feb100, 2024-10-09)"
   xmlns:inkscape="http://www.inkscape.org/namespaces/inkscape"
   xmlns:sodipodi="http://sodipodi.sourceforge.net/DTD/sodipodi-0.dtd"
   xmlns="http://www.w3.org/2000/svg"
   xmlns:svg="http://www.w3.org/2000/svg">
  <defs
     id="defs14" />
  <sodipodi:namedview
     id="namedview14"
     pagecolor="#ffffff"
     bordercolor="#666666"
     borderopacity="1.0"
     inkscape:showpageshadow="2"
     inkscape:pageopacity="0.0"
     inkscape:pagecheckerboard="0"
     inkscape:deskcolor="#d1d1d1"
     inkscape:zoom="1.1959184"
     inkscape:cx="297.26109"
     inkscape:cy="490"
     inkscape:window-width="2560"
     inkscape:window-height="1381"
     inkscape:window-x="0"
     inkscape:window-y="0"
     inkscape:window-maximized="1"
     inkscape:current-layer="svg14" />
  <path
     d="M321.453 958.764L555.592 823.594C570.32 815.089 579.391 799.365 579.391 782.364V514.898C579.391 497.769 570.193 481.963 555.299 473.503L319.801 339.748C304.625 331.133 286.017 331.197 270.905 339.93L39.714 473.44C24.985 481.945 15.9141 497.659 15.9141 514.67V782.364C15.9141 799.365 24.985 815.089 39.714 823.594L273.835 958.764C288.573 967.269 306.724 967.269 321.453 958.764Z"
     fill="white"
     id="path1" />
  <path
     d="M296.74 820.884V652.322M321.453 958.764L555.592 823.594C570.32 815.089 579.391 799.365 579.391 782.364V514.898C579.391 497.769 570.193 481.963 555.3 473.503L319.801 339.748C304.625 331.133 286.017 331.197 270.905 339.93L39.714 473.44C24.985 481.945 15.9141 497.659 15.9141 514.67V782.364C15.9141 799.365 24.985 815.089 39.714 823.594L273.835 958.764C288.573 967.269 306.724 967.269 321.453 958.764Z"
     stroke="black"
     stroke-width="28.5646"
     stroke-miterlimit="10"
     stroke-linecap="round"
     stroke-linejoin="round"
     id="path2" />
  <path
     d="M22.6484 494.483L296.667 649.429L570.84 494.401"
     stroke="black"
     stroke-width="28.5646"
     stroke-miterlimit="10"
     stroke-linecap="round"
     stroke-linejoin="round"
     id="path3" />
  <path
     d="M414.077 491.371L414.041 461.348L378.98 459.477C366.386 455.909 354.842 455.379 352.479 455.306C352.232 452.623 349.02 429.581 308.949 421.496C267.244 413.082 238.161 437.201 238.161 437.201C231.809 441.682 226.826 446.372 222.939 451.154L211.057 450.524L211.075 482.401C210.391 507.077 226.945 527.683 226.945 527.683C226.945 527.683 318.184 552.203 383.67 521.331C383.67 521.331 413.265 509.477 414.022 491.371H414.077Z"
     fill="black"
     stroke="black"
     stroke-width="28.5646"
     stroke-miterlimit="10"
     stroke-linecap="round"
     stroke-linejoin="round"
     id="path4" />
  <path
     d="M226.946 496.655C226.946 496.655 318.185 521.167 383.671 490.303C383.671 490.303 425.495 473.549 410.976 449.457C397.041 426.305 357.125 424.425 352.48 424.279C352.233 421.587 349.021 398.544 308.95 390.459C267.245 382.045 238.171 406.164 238.171 406.164C184.612 443.936 226.946 496.655 226.946 496.655Z"
     fill="#FC79DF"
     id="path5" />
  <path
     d="M226.946 496.655C226.946 496.655 318.185 521.167 383.671 490.303C383.671 490.303 425.495 473.549 410.976 449.457C397.041 426.305 357.125 424.425 352.48 424.279C352.233 421.587 349.021 398.544 308.95 390.459C267.245 382.045 238.171 406.164 238.171 406.164C184.612 443.936 226.946 496.655 226.946 496.655Z"
     stroke="black"
     stroke-width="28.5646"
     stroke-miterlimit="10"
     id="path6" />
  <path
     d="M386.899 690.978C393.397 679.882 403.864 673.922 410.261 677.673C416.667 681.424 416.594 693.461 410.097 704.557C403.599 715.654 393.132 721.613 386.726 717.863C380.329 714.103 380.402 702.075 386.899 690.978ZM466.941 644.757C473.439 633.66 483.897 627.71 490.303 631.46C496.709 635.211 496.636 647.248 490.129 658.345C483.632 669.442 473.174 675.392 466.768 671.641C460.361 667.89 460.434 655.853 466.941 644.757Z"
     fill="black"
     id="path7" />
  <path
     d="M320.539 640.431L554.687 505.261C569.416 496.756 578.487 481.032 578.487 464.031V196.565C578.487 179.436 569.288 163.63 554.395 155.17L318.887 21.4146C303.72 12.7999 285.103 12.8638 270 21.5971L38.7999 155.107C24.0801 163.612 15 179.326 15 196.337V464.031C15 481.032 24.0801 496.756 38.7999 505.261L272.93 640.431C287.659 648.936 305.819 648.936 320.539 640.431Z"
     fill="white"
     id="path8" />
  <path
     d="M295.835 502.551V333.989M320.539 640.431L554.687 505.261C569.416 496.756 578.487 481.032 578.487 464.031V196.565C578.487 179.436 569.288 163.63 554.395 155.17L318.887 21.4146C303.72 12.7999 285.103 12.8638 270 21.5971L38.7999 155.107C24.0801 163.612 15 179.326 15 196.337V464.031C15 481.032 24.0801 496.756 38.7999 505.261L272.93 640.431C287.659 648.936 305.819 648.936 320.539 640.431Z"
     stroke="black"
     stroke-width="28.5646"
     stroke-miterlimit="10"
     stroke-linecap="round"
     stroke-linejoin="round"
     id="path9" />
  <path
     d="M21.7422 176.151L295.761 331.097L569.934 176.069"
     stroke="black"
     stroke-width="28.5646"
     stroke-miterlimit="10"
     stroke-linecap="round"
     stroke-linejoin="round"
     id="path10" />
  <path
     d="M385.992 372.646C392.498 361.549 402.957 355.59 409.363 359.341C415.769 363.091 415.687 375.128 409.189 386.225C402.692 397.322 392.234 403.281 385.828 399.53C379.421 395.77 379.494 383.743 385.992 372.646ZM466.034 326.424C472.531 315.327 482.998 309.377 489.395 313.128C495.802 316.879 495.729 328.915 489.231 340.012C482.734 351.109 472.266 357.059 465.86 353.308C459.463 349.558 459.536 337.521 466.034 326.424Z"
     fill="black"
     id="path14" />
</svg>
