<svg width="875" height="982" viewBox="0 0 875 982" fill="none" xmlns="http://www.w3.org/2000/svg">
<path d="M602.5 798.548L836.648 663.378C851.376 654.882 860.447 639.158 860.447 622.148V354.691C860.447 337.553 851.249 321.747 836.356 313.297L600.857 179.541C585.681 170.917 567.073 170.99 551.961 179.714L320.761 313.224C306.041 321.738 296.961 337.443 296.961 354.454V622.148C296.961 639.158 306.041 654.873 320.761 663.378L554.891 798.548C569.62 807.053 587.78 807.053 602.5 798.548Z" fill="white"/>
<path d="M602.5 798.548L836.648 663.378C851.376 654.882 860.447 639.158 860.447 622.148V354.691C860.447 337.553 851.249 321.747 836.356 313.297L600.857 179.541C585.681 170.917 567.073 170.99 551.961 179.714L320.761 313.224C306.041 321.738 296.961 337.443 296.961 354.454V622.148C296.961 639.158 306.041 654.873 320.761 663.378L554.891 798.548C569.62 807.053 587.78 807.053 602.5 798.548Z" stroke="black" stroke-width="28.5646" stroke-miterlimit="10" stroke-linecap="round" stroke-linejoin="round"/>
<path d="M303.695 334.276L577.714 489.213L851.887 334.185" stroke="black" stroke-width="28.5646" stroke-miterlimit="10" stroke-linecap="round" stroke-linejoin="round"/>
<path d="M320.757 960.484L554.896 825.314C569.634 816.809 578.705 801.085 578.705 784.084V516.618C578.705 499.489 569.497 483.683 554.604 475.224L319.106 341.468C303.93 332.853 285.322 332.917 270.21 341.65L39.0187 475.16C24.2897 483.665 15.2188 499.379 15.2188 516.39V784.084C15.2188 801.085 24.2897 816.809 39.0187 825.314L273.148 960.484C287.877 968.981 306.028 968.981 320.757 960.484Z" fill="white"/>
<path d="M296.054 822.604V654.042M320.757 960.484L554.896 825.314C569.634 816.809 578.705 801.085 578.705 784.084V516.618C578.705 499.489 569.497 483.683 554.604 475.224L319.106 341.468C303.929 332.853 285.322 332.917 270.21 341.65L39.0187 475.16C24.2897 483.665 15.2188 499.379 15.2188 516.39V784.084C15.2188 801.085 24.2897 816.809 39.0187 825.314L273.148 960.484C287.877 968.981 306.028 968.981 320.757 960.484Z" stroke="black" stroke-width="28.5646" stroke-miterlimit="10" stroke-linecap="round" stroke-linejoin="round"/>
<path d="M21.9609 496.204L295.979 651.149L570.144 496.112" stroke="black" stroke-width="28.5646" stroke-miterlimit="10" stroke-linecap="round" stroke-linejoin="round"/>
<path d="M413.38 493.091L413.343 463.068L378.282 461.197C365.698 457.629 354.154 457.1 351.781 457.027C351.534 454.344 348.331 431.301 308.251 423.216C266.556 414.802 237.472 438.912 237.472 438.912C231.12 443.393 226.129 448.093 222.241 452.874L210.359 452.236L210.387 484.121C209.693 508.797 226.247 529.403 226.247 529.403C226.247 529.403 317.486 553.924 382.982 523.051C382.982 523.051 412.567 511.197 413.325 493.091H413.38Z" fill="black" stroke="black" stroke-width="28.5646" stroke-miterlimit="10" stroke-linecap="round" stroke-linejoin="round"/>
<path d="M226.251 498.367C226.251 498.367 317.499 522.887 382.985 492.024C382.985 492.024 424.799 475.269 410.289 451.177C396.345 428.025 356.429 426.136 351.784 426C351.538 423.307 348.326 400.265 308.255 392.18C266.559 383.766 237.475 407.885 237.475 407.885C183.916 445.656 226.251 498.367 226.251 498.367Z" fill="#FC79DF"/>
<path d="M226.251 498.367C226.251 498.367 317.499 522.887 382.985 492.024C382.985 492.024 424.799 475.269 410.289 451.177C396.345 428.025 356.429 426.136 351.784 426C351.538 423.307 348.326 400.265 308.255 392.18C266.559 383.766 237.475 407.885 237.475 407.885C183.916 445.656 226.251 498.367 226.251 498.367Z" stroke="black" stroke-width="28.5646" stroke-miterlimit="10"/>
<path d="M386.211 692.69C392.708 681.593 403.175 675.643 409.572 679.394C415.979 683.144 415.906 695.181 409.408 706.278C402.911 717.375 392.443 723.334 386.046 719.574C379.64 715.824 379.713 703.787 386.211 692.69ZM466.252 646.477C472.75 635.38 483.208 629.43 489.614 633.181C496.02 636.932 495.947 648.969 489.45 660.066C482.952 671.162 472.485 677.112 466.079 673.362C459.673 669.611 459.755 657.574 466.252 646.477Z" fill="black"/>
<path d="M320.757 640.427L554.896 505.256C569.634 496.76 578.705 481.037 578.705 464.026V196.569C578.705 179.431 569.497 163.625 554.604 155.175L319.106 21.4191C303.93 12.7953 285.322 12.8683 270.21 21.5925L39.0187 155.102C24.2897 163.616 15.2188 179.322 15.2188 196.332V464.026C15.2188 481.037 24.2897 496.751 39.0187 505.256L273.148 640.427C287.877 648.932 306.028 648.932 320.757 640.427Z" fill="white"/>
<path d="M296.054 502.555V333.994M320.757 640.427L554.896 505.256C569.634 496.76 578.705 481.037 578.705 464.026V196.569C578.705 179.431 569.497 163.625 554.604 155.175L319.106 21.4191C303.929 12.7953 285.322 12.8683 270.21 21.5925L39.0187 155.102C24.2897 163.616 15.2188 179.322 15.2188 196.332V464.026C15.2188 481.037 24.2897 496.751 39.0187 505.256L273.148 640.427C287.877 648.932 306.028 648.932 320.757 640.427Z" stroke="black" stroke-width="28.5646" stroke-miterlimit="10" stroke-linecap="round" stroke-linejoin="round"/>
<path d="M21.9609 176.146L295.979 331.092L570.144 176.064" stroke="black" stroke-width="28.5646" stroke-miterlimit="10" stroke-linecap="round" stroke-linejoin="round"/>
<path d="M413.38 173.043L413.343 143.02L378.282 141.149C365.698 137.572 354.154 137.052 351.781 136.969C351.534 134.286 348.331 111.244 308.251 103.159C266.556 94.7447 237.472 118.864 237.472 118.864C231.12 123.345 226.129 128.035 222.241 132.817L210.359 132.188L210.387 164.064C209.693 188.74 226.247 209.355 226.247 209.355C226.247 209.355 317.486 233.866 382.982 203.003C382.982 203.003 412.567 191.149 413.325 173.043H413.38Z" fill="black" stroke="black" stroke-width="28.5646" stroke-miterlimit="10" stroke-linecap="round" stroke-linejoin="round"/>
<path d="M226.251 178.318C226.251 178.318 317.499 202.83 382.985 171.966C382.985 171.966 424.799 155.221 410.289 131.12C396.345 107.968 356.429 106.088 351.784 105.942C351.538 103.259 348.326 80.2162 308.255 72.1308C266.559 63.7169 237.475 87.8271 237.475 87.8271C183.916 125.598 226.251 178.318 226.251 178.318Z" fill="#6B78CB"/>
<path d="M226.251 178.318C226.251 178.318 317.499 202.83 382.985 171.966C382.985 171.966 424.799 155.221 410.289 131.12C396.345 107.968 356.429 106.088 351.784 105.942C351.538 103.259 348.326 80.2162 308.255 72.1308C266.559 63.7169 237.475 87.8271 237.475 87.8271C183.916 125.598 226.251 178.318 226.251 178.318Z" stroke="black" stroke-width="28.5646" stroke-miterlimit="10"/>
<path d="M386.211 372.641C392.708 361.544 403.175 355.594 409.572 359.336C415.979 363.095 415.906 375.132 409.408 386.229C402.911 397.326 392.443 403.276 386.046 399.525C379.64 395.775 379.713 383.738 386.211 372.641ZM466.252 326.428C472.75 315.331 483.208 309.372 489.614 313.123C496.02 316.874 495.947 328.911 489.45 340.007C482.952 351.104 472.485 357.063 466.079 353.313C459.673 349.553 459.755 337.525 466.252 326.428Z" fill="black"/>
</svg>
